<?xml version="1.0" encoding="utf-8"?>
<!-- Generator: Adobe Illustrator 19.0.0, SVG Export Plug-In . SVG Version: 6.00 Build 0)  -->
<svg version="1.1" id="Calque_1" xmlns="http://www.w3.org/2000/svg" xmlns:xlink="http://www.w3.org/1999/xlink" x="0px" y="0px"
	 viewBox="0 0 200 200" style="enable-background:new 0 0 200 200;" xml:space="preserve">
<style type="text/css">
	.st0{opacity:0.71;fill:#00567C;}
	.st1{opacity:0.5;fill:#00567C;}
</style>
<g id="XMLID_18_">
	<g id="XMLID_188_">
		<path id="XMLID_208_" class="st0" d="M159.4,53c0-9.3-7.5-17-16.8-17H133v34h9.6C151.9,70,159.4,62.3,159.4,53z M138,42h4.6
			c6.3,0,11.1,4.8,11.1,11c0,6.2-4.9,11-11.1,11H138V42z"/>
		<path id="XMLID_205_" class="st1" d="M159.4,53c0-9.3-7.5-17-16.8-17H133v34h9.6C151.9,70,159.4,62.3,159.4,53z M138,42h4.6
			c6.3,0,11.1,4.8,11.1,11c0,6.2-4.9,11-11.1,11H138V42z"/>
		<path id="XMLID_202_" class="st0" d="M39.9,160h6.4l2.3-6h13.2l2.3,6h6.4l-15.3-35L39.9,160z M50.6,149l4.7-11.6l4.7,11.6H50.6z"
			/>
		<path id="XMLID_199_" class="st1" d="M39.9,160h6.4l2.3-6h13.2l2.3,6h6.4l-15.3-35L39.9,160z M50.6,149l4.7-11.6l4.7,11.6H50.6z"
			/>
		<path id="XMLID_195_" class="st0" d="M7,7v186h186V7H7z M48.6,37l6.6,12.1L61.9,37h6.6L58,54.2V70h-6V54.2L42,37H48.6z M186,186
			H14v-84h88V14h84V186z"/>
		<path id="XMLID_191_" class="st1" d="M7,7v186h186V7H7z M48.6,37l6.6,12.1L61.9,37h6.6L58,54.2V70h-6V54.2L42,37H48.6z M186,186
			H14v-84h88V14h84V186z"/>
		<polygon id="XMLID_190_" class="st0" points="138,138.9 158,161 158,126 152,126 152,146.7 132,124.6 132,160 138,160 		"/>
		<polygon id="XMLID_189_" class="st1" points="138,138.9 158,161 158,126 152,126 152,146.7 132,124.6 132,160 138,160 		"/>
	</g>
</g>
</svg>
